<svg version="1" xmlns="http://www.w3.org/2000/svg" width="21.333" height="21.333" viewBox="0 0 16.000000 16.000000"><path d="M.106 2.131c.057.125.247.538.425.916.466 1 .519 1.115.719 1.547l.297.64c.066.138.156.335.203.438.047.103.188.406.313.672.124.265.268.575.318.687l.247.525c.085.178.153.328.153.332 0 .006.072.165.16.35.256.54.58 1.243 1.175 2.528.23.496.356.765.525 1.125.065.137.156.334.203.437.047.103.137.297.2.428.062.135.162.353.225.485.06.134.175.38.253.546l.144.307H7.53l-.075-.166c-.04-.087-.128-.275-.19-.412l-.657-1.407-.375-.812-.415-.89c-.066-.148-.4-.863-.74-1.595-.338-.73-.666-1.434-.726-1.562l-.197-.422-.218-.469a29.305 29.305 0 0 1-.22-.468 35.852 35.852 0 0 0-.18-.391c-.244-.525-.375-.806-.616-1.328l-.653-1.406-.394-.844-.938-.01L0 1.907l.106.225zM2.813 1.919c0 .012.146.337.343.753.216.456.375.8.46.984.093.21.168.369.412.888.106.222.19.406.19.412 0 .003.076.166.17.363.171.365.3.637.434.931.094.203.178.39.725 1.562.578 1.241.612 1.316.922 1.985.26.56.587 1.269.834 1.797.063.128.134.29.166.36.031.068.168.362.306.655.138.291.284.61.328.704.044.093.14.309.219.474l.144.307h1.868l.338-.728c.184-.397.4-.86.478-1.022.075-.163.178-.381.225-.485.238-.515.697-1.506.84-1.809.088-.184.16-.344.16-.347 0-.006.09-.2.203-.437.113-.235.203-.432.203-.438a167.232 167.232 0 0 1 .438-.938l.281-.609c.228-.497.369-.793.597-1.278a8.13 8.13 0 0 0 .184-.397c0-.003.16-.35.356-.768.194-.42.382-.822.42-.9.062-.138.118-.26.527-1.141.113-.24.253-.54.31-.666L16 1.906l-.938.007-.94.009-.166.36c-.09.196-.237.512-.328.7-.087.184-.16.343-.16.346 0 .006-.071.163-.159.35-.087.185-.187.4-.222.478a20.4 20.4 0 0 1-.215.46l-.306.656c-.147.322-.254.55-.538 1.156-.187.4-.478 1.025-.606 1.306l-.178.391c-.11.228-.25.534-.4.86a26.22 26.22 0 0 1-.219.468c-.066.138-.153.328-.197.422l-.237.51c-.088.184-.16.34-.16.346 0 .01-.075.175-.469 1.003l-.162.344-.075-.156c-.044-.088-.134-.284-.206-.438a93.256 93.256 0 0 0-.328-.7 381.639 381.639 0 0 0-1.203-2.597c-.054-.112-.229-.49-.391-.843-.163-.353-.344-.74-.4-.86l-1.24-2.671c-.07-.147-.207-.441-.307-.657-.1-.215-.228-.497-.29-.625-.06-.128-.148-.322-.198-.431l-.087-.194h-.931c-.513 0-.932.007-.932.013z"/><path d="M10.875 2.881c-.247.538-.522 1.131-.61 1.322-.09.188-.321.684-.515 1.103l-.353.757-.263-.572-.265-.575-.919.003c-.59.003-.919.015-.916.034.007.056.047.14.404.906.334.716.406.87.628 1.35.053.12.146.32.206.447.062.128.197.425.306.657.106.23.269.574.356.759.088.187.16.344.16.35 0 .006.069.156.156.331l.153.322.106-.231a291.458 291.458 0 0 1 1.047-2.25c.05-.113.15-.331.225-.485l.172-.375c.022-.053.11-.234.188-.406l.443-.953c.166-.353.344-.74.4-.86.057-.121.238-.515.407-.874.165-.363.35-.757.406-.875.278-.588.39-.835.39-.847 0-.006-.418-.013-.93-.013h-.929l-.453.975z"/></svg>